<?xml version="1.0" encoding="UTF-8" standalone="no" ?>
<!DOCTYPE svg PUBLIC "-//W3C//DTD SVG 1.1//EN" "http://www.w3.org/Graphics/SVG/1.1/DTD/svg11.dtd">
<svg xmlns="http://www.w3.org/2000/svg" xmlns:xlink="http://www.w3.org/1999/xlink" version="1.1" width="500" height="500" viewBox="0 0 500 500" xml:space="preserve">
<desc>Created with Fabric.js 4.6.0</desc>
<defs>
</defs>
<g transform="matrix(1 0 0 1 189.01 58.8)" id="wR6g793gXsGrrdVca8w98"  >
<path style="stroke: rgb(0,0,0); stroke-width: 1; stroke-dasharray: none; stroke-linecap: butt; stroke-dashoffset: 0; stroke-linejoin: miter; stroke-miterlimit: 4; fill: rgb(255,255,255); fill-opacity: 0; fill-rule: nonzero; opacity: 1;" vector-effect="non-scaling-stroke"  transform=" translate(0, 0)" d="M 0 0" stroke-linecap="round" />
</g>
<g transform="matrix(0.33 -0.5 0.5 0.33 399.93 189.75)" id="glqltmNWFAoAo_s7rJFvT" clip-path="url(#CLIPPATH_488)"  >
<linearGradient id="SVGID_438" gradientUnits="userSpaceOnUse" gradientTransform="matrix(1 0 0 1 -100 -100)"  x1="0" y1="100" x2="199.26791858880298" y2="98.73199780052994">
<stop offset="0%" style="stop-color:#00FFED;stop-opacity: 1"/>
<stop offset="50%" style="stop-color:#00FFED;stop-opacity: 1"/>
<stop offset="100%" style="stop-color:#00B8BA;stop-opacity: 1"/>
</linearGradient>
<clipPath id="CLIPPATH_488" >
	<rect transform="matrix(1 0 0 1 0 -50)" id="cut-off-bottom" x="-100" y="-50" rx="0" ry="0" width="200" height="100" />
</clipPath>
<circle style="stroke: none; stroke-width: 1; stroke-dasharray: none; stroke-linecap: butt; stroke-dashoffset: 0; stroke-linejoin: miter; stroke-miterlimit: 4; fill: url(#SVGID_438); fill-rule: nonzero; opacity: 1;" vector-effect="non-scaling-stroke"  cx="0" cy="0" r="100" />
</g>
<g transform="matrix(1.43 0 0 1.43 140.43 242.19)" id="HTqFuKgkIX0F8sbKsCCxM"  >
<linearGradient id="SVGID_439" gradientUnits="userSpaceOnUse" gradientTransform="matrix(1 0 0 1 -55.71 -79.69)"  x1="16.477272727272748" y1="14.827108779222485" x2="107.81880843994452" y2="140.39529059740428">
<stop offset="0%" style="stop-color:rgb(220,33,184);stop-opacity: 1"/>
<stop offset="23.43326636607897%" style="stop-color:rgb(220,33,184);stop-opacity: 1"/>
<stop offset="100%" style="stop-color:rgb(244,39,157);stop-opacity: 1"/>
</linearGradient>
<path style="stroke: rgb(220,33,184); stroke-width: 0; stroke-dasharray: none; stroke-linecap: butt; stroke-dashoffset: 0; stroke-linejoin: miter; stroke-miterlimit: 4; fill: url(#SVGID_439); fill-rule: nonzero; opacity: 1;" vector-effect="non-scaling-stroke"  transform=" translate(0, 0)" d="M -55.70593 -75.15737 L -35.35864 -79.02539 L -35.35864 -79.02539 C -19.428 -82.05381 -3.3597 -74.47653 4.438119999999998 -60.25856 L 52.00698 26.475009999999997 L 52.00698 26.475009999999997 C 57.52693 36.53968 56.8244 48.87099 50.19708 58.24361999999999 L 35.03532 79.68599999999999 L -53.68888 -75.15736 z" stroke-linecap="round" />
</g>
<g transform="matrix(1.43 0 0 1.43 264.61 239.42)" id="mxQA21CkLRoX5j8wvvXkS"  >
<linearGradient id="SVGID_487" gradientUnits="userSpaceOnUse" gradientTransform="matrix(1 0 0 1 -55.71 -79.69)"  x1="16.477272727272748" y1="14.827108779222485" x2="107.81880843994452" y2="140.39529059740428">
<stop offset="0%" style="stop-color:rgb(220,33,184);stop-opacity: 1"/>
<stop offset="23.43326636607897%" style="stop-color:rgb(220,33,184);stop-opacity: 1"/>
<stop offset="100%" style="stop-color:rgb(244,39,157);stop-opacity: 1"/>
</linearGradient>
<path style="stroke: rgb(220,33,184); stroke-width: 0; stroke-dasharray: none; stroke-linecap: butt; stroke-dashoffset: 0; stroke-linejoin: miter; stroke-miterlimit: 4; fill: url(#SVGID_487); fill-rule: nonzero; opacity: 1;" vector-effect="non-scaling-stroke"  transform=" translate(0, 0)" d="M -55.70593 -75.15737 L -35.35864 -79.02539 L -35.35864 -79.02539 C -19.428 -82.05381 -3.3597 -74.47653 4.438119999999998 -60.25856 L 52.00698 26.475009999999997 L 52.00698 26.475009999999997 C 57.52693 36.53968 56.8244 48.87099 50.19708 58.24361999999999 L 35.03532 79.68599999999999 L -53.68888 -75.15736 z" stroke-linecap="round" />
</g>
</svg>